<svg width="303" height="62" viewBox="0 0 303 62" fill="none" xmlns="http://www.w3.org/2000/svg">
    <path d="M60.159 46.728C60.7137 46.728 61.1403 46.984 61.439 47.496C61.7803 48.008 61.951 48.712 61.951 49.608C61.951 51.272 61.5457 52.5947 60.735 53.576C58.687 56.0507 56.6177 57.9707 54.527 59.336C52.4363 60.6587 49.9617 61.32 47.103 61.32C44.3297 61.32 41.9617 60.5733 39.999 59.08C38.079 57.5867 36.2443 55.0267 34.495 51.4C33.087 48.4987 31.9777 46.3653 31.167 45C30.3563 43.592 29.5457 42.5893 28.735 41.992C27.967 41.3947 27.007 41.032 25.855 40.904C25.6843 41.8 25.1937 44.616 24.383 49.352C24.0417 51.4853 23.8283 52.7867 23.743 53.256C23.3163 55.8587 22.463 57.864 21.183 59.272C19.903 60.6373 17.9617 61.32 15.359 61.32C12.5003 61.32 9.96167 60.488 7.743 58.824C5.567 57.1173 3.88167 54.7707 2.687 51.784C1.49233 48.7547 0.895 45.32 0.895 41.48C0.895 34.312 2.13233 28.1253 4.607 22.92C7.12433 17.7147 10.623 13.7467 15.103 11.016C19.6257 8.24267 24.831 6.856 30.719 6.856C34.815 6.856 38.2497 7.47467 41.023 8.712C43.7963 9.94933 45.8443 11.656 47.167 13.832C48.5323 16.008 49.215 18.4613 49.215 21.192C49.215 23.5813 48.639 25.928 47.487 28.232C46.3777 30.4933 44.6923 32.4987 42.431 34.248C40.1697 35.9973 37.4177 37.2987 34.175 38.152C36.223 38.7067 37.8017 39.6027 38.911 40.84C40.0203 42.0773 41.1297 43.8907 42.239 46.28C43.4337 48.84 44.607 50.7173 45.759 51.912C46.9537 53.1067 48.319 53.704 49.855 53.704C51.2203 53.704 52.5217 53.256 53.759 52.36C54.9963 51.4213 56.5537 49.8427 58.431 47.624C58.943 47.0267 59.519 46.728 60.159 46.728ZM17.023 40.84C15.5723 40.84 14.5697 40.4987 14.015 39.816C13.503 39.1333 13.247 38.3653 13.247 37.512C13.247 36.488 13.567 35.6773 14.207 35.08C14.8897 34.4827 15.6577 34.184 16.511 34.184H18.111C18.7937 30.0027 19.4337 26.3973 20.031 23.368C20.5857 20.5947 22.3777 19.208 25.407 19.208C27.839 19.208 29.055 20.296 29.055 22.472C29.055 22.9413 29.0337 23.304 28.991 23.56L27.071 34.184C29.375 34.056 31.4657 33.5013 33.343 32.52C35.263 31.5387 36.7777 30.1733 37.887 28.424C39.039 26.6747 39.615 24.6907 39.615 22.472C39.615 19.784 38.6977 17.672 36.863 16.136C35.0283 14.6 32.3403 13.832 28.799 13.832C24.6177 13.832 20.9483 14.8773 17.791 16.968C14.6763 19.016 12.2443 22.088 10.495 26.184C8.74567 30.2373 7.871 35.1867 7.871 41.032C7.871 43.7627 8.14833 46.1093 8.703 48.072C9.25767 50.0347 9.94033 51.5067 10.751 52.488C11.5617 53.4693 12.3297 53.96 13.055 53.96C13.6097 53.96 14.0577 53.6827 14.399 53.128C14.783 52.5733 15.0817 51.6773 15.295 50.44L17.023 40.84ZM84.0535 46.728C84.6082 46.728 85.0348 46.984 85.3335 47.496C85.6748 48.008 85.8455 48.712 85.8455 49.608C85.8455 51.3147 85.4402 52.6373 84.6295 53.576C83.0508 55.496 80.8108 57.2667 77.9095 58.888C75.0508 60.5093 71.9788 61.32 68.6935 61.32C64.2135 61.32 60.7362 60.104 58.2615 57.672C55.7868 55.24 54.5495 51.912 54.5495 47.688C54.5495 44.744 55.1682 42.0133 56.4055 39.496C57.6428 36.936 59.3495 34.9093 61.5255 33.416C63.7442 31.9227 66.2402 31.176 69.0135 31.176C71.4882 31.176 73.4722 31.9227 74.9655 33.416C76.4588 34.8667 77.2055 36.8507 77.2055 39.368C77.2055 42.312 76.1388 44.8507 74.0055 46.984C71.9148 49.0747 68.3522 50.7387 63.3175 51.976C64.3842 53.9387 66.4108 54.92 69.3975 54.92C71.3175 54.92 73.4935 54.2587 75.9255 52.936C78.4002 51.5707 80.5335 49.8 82.3255 47.624C82.8375 47.0267 83.4135 46.728 84.0535 46.728ZM67.9255 37.448C66.3468 37.448 65.0028 38.3653 63.8935 40.2C62.8268 42.0347 62.2935 44.2533 62.2935 46.856V46.984C64.8108 46.3867 66.7948 45.4907 68.2455 44.296C69.6962 43.1013 70.4215 41.7147 70.4215 40.136C70.4215 39.3253 70.1868 38.6853 69.7175 38.216C69.2908 37.704 68.6935 37.448 67.9255 37.448ZM88.194 61.32C85.5487 61.32 83.4367 60.36 81.858 58.44C80.2793 56.52 79.49 54.0027 79.49 50.888C79.49 47.4747 80.2793 44.2533 81.858 41.224C83.4367 38.152 85.5273 35.6987 88.13 33.864C90.7753 31.9867 93.57 31.048 96.514 31.048C97.4527 31.048 98.0713 31.24 98.37 31.624C98.7113 31.9653 98.9887 32.6053 99.202 33.544C100.098 33.3733 101.037 33.288 102.018 33.288C104.109 33.288 105.154 34.0347 105.154 35.528C105.154 36.424 104.834 38.5573 104.194 41.928C103.213 46.8347 102.722 50.248 102.722 52.168C102.722 52.808 102.871 53.32 103.17 53.704C103.511 54.088 103.938 54.28 104.45 54.28C105.261 54.28 106.242 53.768 107.394 52.744C108.546 51.6773 110.103 49.9707 112.066 47.624C112.578 47.0267 113.154 46.728 113.794 46.728C114.349 46.728 114.775 46.984 115.074 47.496C115.415 48.008 115.586 48.712 115.586 49.608C115.586 51.3147 115.181 52.6373 114.37 53.576C112.621 55.752 110.765 57.5867 108.802 59.08C106.839 60.5733 104.941 61.32 103.106 61.32C101.698 61.32 100.397 60.8507 99.202 59.912C98.05 58.9307 97.1753 57.608 96.578 55.944C94.3593 59.528 91.5647 61.32 88.194 61.32ZM90.498 54.856C91.4367 54.856 92.3327 54.3013 93.186 53.192C94.0393 52.0827 94.658 50.6107 95.042 48.776L97.41 37C95.618 37.0427 93.954 37.7253 92.418 39.048C90.9247 40.328 89.73 42.0347 88.834 44.168C87.938 46.3013 87.49 48.5627 87.49 50.952C87.49 52.2747 87.746 53.256 88.258 53.896C88.8127 54.536 89.5593 54.856 90.498 54.856ZM146.737 46.728C147.291 46.728 147.718 46.984 148.017 47.496C148.358 48.008 148.529 48.712 148.529 49.608C148.529 51.3147 148.123 52.6373 147.312 53.576C145.563 55.7093 143.643 57.544 141.553 59.08C139.462 60.5733 137.393 61.32 135.345 61.32C132.102 61.32 129.627 59.4213 127.921 55.624C126.129 57.8853 124.55 59.4 123.185 60.168C121.862 60.936 120.305 61.32 118.513 61.32C115.91 61.32 113.755 60.36 112.049 58.44C110.385 56.4773 109.553 53.9387 109.553 50.824C109.553 47.4107 110.278 44.2533 111.729 41.352C113.179 38.408 115.163 36.0187 117.681 34.184C120.241 32.3067 123.099 31.1973 126.257 30.856C127.067 22.5787 128.603 15.5173 130.865 9.672C133.169 3.784 136.177 0.839996 139.889 0.839996C141.723 0.839996 143.238 1.672 144.433 3.336C145.67 5 146.289 7.51733 146.289 10.888C146.289 15.6667 145.115 21.256 142.769 27.656C140.422 34.056 137.286 40.6267 133.361 47.368C133.531 49.8427 133.894 51.6133 134.449 52.68C135.046 53.7467 135.793 54.28 136.689 54.28C137.841 54.28 139.014 53.768 140.208 52.744C141.403 51.72 143.003 50.0133 145.009 47.624C145.521 47.0267 146.097 46.728 146.737 46.728ZM139.185 7.112C138.374 7.112 137.563 8.56266 136.753 11.464C135.942 14.3227 135.238 18.0773 134.641 22.728C134.086 27.3787 133.681 32.2427 133.425 37.32C138.203 26.9093 140.593 18.5467 140.593 12.232C140.593 10.6107 140.443 9.352 140.145 8.456C139.889 7.56 139.569 7.112 139.185 7.112ZM120.753 54.856C121.563 54.856 122.374 54.536 123.185 53.896C123.995 53.2133 125.019 51.976 126.257 50.184C125.83 47.88 125.617 45.2987 125.617 42.44C125.617 41.416 125.659 39.752 125.745 37.448C123.398 38.1733 121.435 39.752 119.857 42.184C118.321 44.5733 117.553 47.24 117.553 50.184C117.553 53.2987 118.619 54.856 120.753 54.856ZM155.098 61.32C153.519 61.32 152.389 60.9787 151.706 60.296C151.023 59.5707 150.682 58.2267 150.682 56.264C150.682 54.9413 150.81 53.256 151.066 51.208C151.365 49.1173 151.834 46.2587 152.474 42.632C153.583 35.9333 154.458 30.1307 155.098 25.224C155.482 22.152 155.674 19.592 155.674 17.544C155.674 15.624 154.97 14.664 153.562 14.664C152.453 14.664 151.109 15.24 149.53 16.392C147.994 17.5013 146.287 19.2933 144.41 21.768C143.813 22.5787 143.151 22.984 142.426 22.984C141.829 22.984 141.295 22.7067 140.826 22.152C140.399 21.5547 140.186 20.8933 140.186 20.168C140.186 19.4853 140.314 18.8027 140.57 18.12C140.869 17.3947 141.338 16.584 141.978 15.688C144.026 12.8293 146.309 10.632 148.826 9.096C151.343 7.51733 153.861 6.728 156.378 6.728C158.725 6.728 160.517 7.47466 161.754 8.968C163.034 10.4613 163.674 12.6373 163.674 15.496C163.674 16.648 163.567 18.0133 163.354 19.592C163.141 21.128 162.949 22.3867 162.778 23.368C162.607 24.3493 162.479 25.032 162.394 25.416C164.826 18.4613 167.557 13.6187 170.586 10.888C173.615 8.11466 176.943 6.728 180.57 6.728C183.343 6.728 185.519 7.70933 187.098 9.672C188.719 11.6347 189.53 14.408 189.53 17.992C189.53 19.4 189.338 21.1493 188.954 23.24C191.087 17.352 193.583 13.128 196.442 10.568C199.301 8.008 202.586 6.728 206.298 6.728C209.285 6.728 211.567 7.688 213.146 9.608C214.767 11.528 215.578 14.216 215.578 17.672C215.578 19.5493 215.301 21.832 214.746 24.52L210.842 42.824C210.415 44.9573 210.202 46.792 210.202 48.328C210.202 50.12 210.607 51.464 211.418 52.36C212.271 53.256 213.445 53.704 214.938 53.704C216.346 53.704 217.711 53.2347 219.034 52.296C220.399 51.3573 221.999 49.8 223.834 47.624C224.346 47.0267 224.922 46.728 225.562 46.728C226.117 46.728 226.543 46.984 226.842 47.496C227.183 48.008 227.354 48.712 227.354 49.608C227.354 51.272 226.949 52.5947 226.138 53.576C223.919 56.264 221.722 58.2267 219.546 59.464C217.37 60.7013 215.087 61.32 212.698 61.32C209.071 61.32 206.234 60.2533 204.186 58.12C202.138 55.944 201.114 53.0427 201.114 49.416C201.114 46.8987 201.626 43.2507 202.65 38.472L205.21 26.76C205.295 26.376 205.445 25.6933 205.658 24.712C205.871 23.7307 206.042 22.8133 206.17 21.96C206.298 21.064 206.362 20.1893 206.362 19.336C206.362 17.8427 206.063 16.7333 205.466 16.008C204.911 15.24 204.101 14.856 203.034 14.856C201.029 14.856 198.917 16.1573 196.698 18.76C194.522 21.32 192.431 25.5867 190.426 31.56C188.463 37.5333 186.863 45.2987 185.626 54.856C185.327 57.416 184.794 59.144 184.026 60.04C183.301 60.8933 182.106 61.32 180.442 61.32C178.991 61.32 177.925 60.9787 177.242 60.296C176.602 59.6133 176.282 58.3333 176.282 56.456C176.282 54.7067 176.517 52.424 176.986 49.608C177.455 46.7493 178.053 43.4 178.778 39.56C180.741 29.2347 181.722 22.5787 181.722 19.592C181.722 17.9707 181.402 16.776 180.762 16.008C180.165 15.24 179.247 14.856 178.01 14.856C175.919 14.856 173.765 16.0507 171.546 18.44C169.327 20.7867 167.151 24.9893 165.018 31.048C162.927 37.064 161.178 45.2133 159.77 55.496C159.471 57.672 159.023 59.1867 158.426 60.04C157.871 60.8933 156.762 61.32 155.098 61.32ZM230.069 61.32C227.424 61.32 225.312 60.36 223.733 58.44C222.154 56.52 221.365 54.0027 221.365 50.888C221.365 47.4747 222.154 44.2533 223.733 41.224C225.312 38.152 227.402 35.6987 230.005 33.864C232.65 31.9867 235.445 31.048 238.389 31.048C239.328 31.048 239.946 31.24 240.245 31.624C240.586 31.9653 240.864 32.6053 241.077 33.544C241.973 33.3733 242.912 33.288 243.893 33.288C245.984 33.288 247.029 34.0347 247.029 35.528C247.029 36.424 246.709 38.5573 246.069 41.928C245.088 46.8347 244.597 50.248 244.597 52.168C244.597 52.808 244.746 53.32 245.045 53.704C245.386 54.088 245.813 54.28 246.325 54.28C247.136 54.28 248.117 53.768 249.269 52.744C250.421 51.6773 251.978 49.9707 253.941 47.624C254.453 47.0267 255.029 46.728 255.669 46.728C256.224 46.728 256.65 46.984 256.949 47.496C257.29 48.008 257.461 48.712 257.461 49.608C257.461 51.3147 257.056 52.6373 256.245 53.576C254.496 55.752 252.64 57.5867 250.677 59.08C248.714 60.5733 246.816 61.32 244.981 61.32C243.573 61.32 242.272 60.8507 241.077 59.912C239.925 58.9307 239.05 57.608 238.453 55.944C236.234 59.528 233.44 61.32 230.069 61.32ZM232.373 54.856C233.312 54.856 234.208 54.3013 235.061 53.192C235.914 52.0827 236.533 50.6107 236.917 48.776L239.285 37C237.493 37.0427 235.829 37.7253 234.293 39.048C232.8 40.328 231.605 42.0347 230.709 44.168C229.813 46.3013 229.365 48.5627 229.365 50.952C229.365 52.2747 229.621 53.256 230.133 53.896C230.688 54.536 231.434 54.856 232.373 54.856ZM280.804 46.728C281.358 46.728 281.785 46.984 282.083 47.496C282.425 48.008 282.596 48.712 282.596 49.608C282.596 51.3147 282.19 52.6373 281.38 53.576C279.545 55.8373 277.54 57.6933 275.364 59.144C273.188 60.5947 270.692 61.32 267.876 61.32C259.172 61.32 254.82 55.1973 254.82 42.952C254.82 41.0747 254.884 39.176 255.012 37.256H252.516C251.236 37.256 250.361 37.0213 249.892 36.552C249.465 36.0827 249.252 35.336 249.252 34.312C249.252 31.9227 250.212 30.728 252.132 30.728H255.78C256.505 26.0347 257.614 21.7467 259.108 17.864C260.601 13.9813 262.393 10.888 264.484 8.584C266.617 6.28 268.9 5.128 271.332 5.128C273.124 5.128 274.532 5.91733 275.556 7.496C276.58 9.07467 277.092 11.0587 277.092 13.448C277.092 20.0613 274.318 25.8213 268.772 30.728H275.94C276.622 30.728 277.113 30.8773 277.412 31.176C277.71 31.4747 277.86 32.0293 277.86 32.84C277.86 35.784 275.449 37.256 270.628 37.256H262.82C262.734 39.3893 262.692 41.0533 262.692 42.248C262.692 46.6853 263.204 49.8 264.228 51.592C265.294 53.384 266.958 54.28 269.22 54.28C271.054 54.28 272.676 53.7253 274.084 52.616C275.492 51.5067 277.156 49.8427 279.076 47.624C279.588 47.0267 280.164 46.728 280.804 46.728ZM269.604 11.272C268.964 11.272 268.238 12.0827 267.428 13.704C266.66 15.2827 265.913 17.5013 265.188 20.36C264.505 23.176 263.929 26.312 263.46 29.768C265.977 27.592 267.854 25.16 269.092 22.472C270.372 19.7413 271.012 17.2667 271.012 15.048C271.012 12.5307 270.542 11.272 269.604 11.272ZM300.297 48.648C300.851 48.648 301.278 48.904 301.577 49.416C301.918 49.928 302.089 50.632 302.089 51.528C302.089 53.064 301.726 54.3867 301.001 55.496C299.806 57.3307 298.227 58.76 296.265 59.784C294.345 60.808 292.041 61.32 289.353 61.32C285.257 61.32 282.078 60.104 279.817 57.672C277.555 55.1973 276.424 51.8693 276.424 47.688C276.424 44.744 277.043 42.0133 278.281 39.496C279.518 36.936 281.225 34.9093 283.401 33.416C285.619 31.9227 288.115 31.176 290.889 31.176C293.363 31.176 295.347 31.9227 296.841 33.416C298.334 34.8667 299.081 36.8507 299.081 39.368C299.081 42.312 298.014 44.8507 295.881 46.984C293.79 49.0747 290.206 50.7387 285.129 51.976C286.153 53.9387 287.881 54.92 290.312 54.92C292.062 54.92 293.491 54.5147 294.601 53.704C295.753 52.8933 297.075 51.528 298.569 49.608C299.081 48.968 299.657 48.648 300.297 48.648ZM289.801 37.448C288.222 37.448 286.878 38.3653 285.769 40.2C284.702 42.0347 284.169 44.2533 284.169 46.856V46.984C286.686 46.3867 288.67 45.4907 290.121 44.296C291.571 43.1013 292.297 41.7147 292.297 40.136C292.297 39.3253 292.062 38.6853 291.593 38.216C291.166 37.704 290.569 37.448 289.801 37.448Z" fill="url(#paint0_linear_9_41)"/>
    <defs>
        <linearGradient id="paint0_linear_9_41" x1="149" y1="-22" x2="149" y2="90" gradientUnits="userSpaceOnUse">
            <stop stop-color="#F582F5"/>
            <stop offset="1" stop-color="#A449FF"/>
        </linearGradient>
    </defs>
</svg>
